# xmcd
#
# Track frame offsets: 
#        150
#        17792
#        39275
#        63092
#        76965
#        94132
#        103857
#        123557
#        142567
#        155540
#        169195
#        189680
#        214534
#        246807
#        265195
#
# Disc length: 3659 seconds
#
# Revision: 0
# Processed by: cddbd v1.5.1PL0 Copyright (c) Steve Scherf et al.
# Submitted via: ExactAudioCopy v0.95a5
#
DISCID=c10e490f
DTITLE=Eric Bibb - Spirit and The Blues
DYEAR=1994
DGENRE=Blues
TTITLE0=Lonesome Valley
TTITLE1=In My Father's House
TTITLE2=Needed Time
TTITLE3=I Am Blessed
TTITLE4=Just Keep Goin' On
TTITLE5=Where Shall I Be?
TTITLE6=Woke Up This Mornin'
TTITLE7=I Want Jesus to Walk With Me
TTITLE8=You're Gonna Need Somebody on Your Bond
TTITLE9=Braggin'
TTITLE10=Water Under the Bridge
TTITLE11=Tell Old Bill
TTITLE12=Satisfied Mind
TTITLE13=Meetin' at the Building
TTITLE14=Waltz
EXTD=
EXTT0=
EXTT1=
EXTT2=
EXTT3=
EXTT4=
EXTT5=
EXTT6=
EXTT7=
EXTT8=
EXTT9=
EXTT10=
EXTT11=
EXTT12=
EXTT13=
EXTT14=
PLAYORDER=
